<svg width="40" height="40" viewBox="0 0 40 40" fill="none" xmlns="http://www.w3.org/2000/svg">
<path fill-rule="evenodd" clip-rule="evenodd" d="M5 6C5 5.44771 5.44772 5 6 5H17.3333C17.8856 5 18.3333 5.44772 18.3333 6V17.3333C18.3333 17.8856 17.8856 18.3333 17.3333 18.3333H6C5.44771 18.3333 5 17.8856 5 17.3333V6ZM5 22.6667C5 22.1144 5.44772 21.6667 6 21.6667H17.3333C17.8856 21.6667 18.3333 22.1144 18.3333 22.6667V34C18.3333 34.5523 17.8856 35 17.3333 35H6C5.44771 35 5 34.5523 5 34V22.6667ZM22.6667 21.6667C22.1144 21.6667 21.6667 22.1144 21.6667 22.6667V34C21.6667 34.5523 22.1144 35 22.6667 35H34C34.5523 35 35 34.5523 35 34V22.6667C35 22.1144 34.5523 21.6667 34 21.6667H22.6667Z" fill="#36435C"/>
<circle cx="28.3333" cy="11.6667" r="6.66667" fill="#CCD3DB"/>
<path fill-rule="evenodd" clip-rule="evenodd" d="M32 38C35.3137 38 38 35.3137 38 32C38 28.6863 35.3137 26 32 26C28.6863 26 26 28.6863 26 32C26 35.3137 28.6863 38 32 38ZM29.0178 31.3734L30.8969 33.2524L35.0928 29.3563L36 30.3333L30.8626 35.1038L28.075 32.3162L29.0178 31.3734Z" fill="#55BC8A"/>
<path fill-rule="evenodd" clip-rule="evenodd" d="M30.8968 33.2524L29.0178 31.3733L28.075 32.3161L30.8626 35.1037L36 30.3333L35.0927 29.3562L30.8968 33.2524Z" fill="white"/>
</svg>
