<svg width="40" height="40" viewBox="0 0 40 40" fill="none" xmlns="http://www.w3.org/2000/svg">
<path d="M17.7614 18.4211C17.7614 17.1661 18.7637 16.1488 20 16.1488C21.2363 16.1488 22.2386 17.1661 22.2386 18.4211C22.2386 19.676 21.2363 20.6933 20 20.6933C18.7637 20.6933 17.7614 19.676 17.7614 18.4211Z" fill="#CCD3DB"/>
<path fill-rule="evenodd" clip-rule="evenodd" d="M5 6.66667C5 5.74619 5.74619 5 6.66667 5H18.75V10H21.25V5H33.3333C34.2538 5 35 5.74619 35 6.66667V18.75H30V21.25H35V33.3333C35 34.2538 34.2538 35 33.3333 35H21.25V30H18.75V35H6.66667C5.74619 35 5 34.2538 5 33.3333V21.25H10V18.75H5V6.66667ZM25.8333 18.4211C25.8333 15.1509 23.2217 12.5 20 12.5C16.7783 12.5 14.1667 15.1509 14.1667 18.4211C14.1667 20.0941 15.3119 22.2656 17.6023 24.9355L18.0314 25.4264C18.473 25.9229 18.9526 26.4358 19.47 26.9651L20 27.5L20.53 26.9651C21.0474 26.4358 21.527 25.9229 21.9686 25.4264L22.3977 24.9355C24.6881 22.2656 25.8333 20.0941 25.8333 18.4211Z" fill="#CCD3DB"/>
<path d="M20 12.5C23.2217 12.5 25.8334 15.1509 25.8334 18.4211C25.8334 20.0941 24.6881 22.2656 22.3977 24.9355L21.9687 25.4264C21.527 25.9229 21.0474 26.4358 20.53 26.9651L20 27.5L19.47 26.9651C18.9526 26.4358 18.4731 25.9229 18.0314 25.4264L17.6023 24.9355C15.3119 22.2656 14.1667 20.0941 14.1667 18.4211C14.1667 15.1509 16.7784 12.5 20 12.5ZM20 16.1488C18.7637 16.1488 17.7614 17.1661 17.7614 18.4211C17.7614 19.676 18.7637 20.6933 20 20.6933C21.2364 20.6933 22.2386 19.676 22.2386 18.4211C22.2386 17.1661 21.2364 16.1488 20 16.1488Z" fill="#36435C"/>
<path fill-rule="evenodd" clip-rule="evenodd" d="M32 38C35.3137 38 38 35.3137 38 32C38 28.6863 35.3137 26 32 26C28.6863 26 26 28.6863 26 32C26 35.3137 28.6863 38 32 38ZM34.357 28.7002L35.2998 29.643L32.9428 32L35.2998 34.357L34.357 35.2999L32 32.9428L29.643 35.2999L28.7002 34.357L31.0572 32L28.7002 29.643L29.643 28.7002L32 31.0572L34.357 28.7002Z" fill="#CA2621"/>
<path fill-rule="evenodd" clip-rule="evenodd" d="M35.2999 29.643L34.3571 28.7002L32 31.0572L29.643 28.7002L28.7002 29.643L31.0572 32L28.7002 34.357L29.643 35.2999L32 32.9428L34.3571 35.2999L35.2999 34.357L32.9428 32L35.2999 29.643Z" fill="white"/>
</svg>
