<svg width="40" height="40" viewBox="0 0 40 40" fill="none" xmlns="http://www.w3.org/2000/svg">
<path fill-rule="evenodd" clip-rule="evenodd" d="M26.36 13.64C24.605 11.885 22.31 11 20 11V20L13.64 26.36C17.15 29.87 22.85 29.87 26.375 26.36C29.885 22.85 29.885 17.15 26.36 13.64Z" fill="#324558"/>
<path fill-rule="evenodd" clip-rule="evenodd" d="M5 20C5 11.72 11.72 5 20 5C28.28 5 35 11.72 35 20C35 28.28 28.28 35 20 35C11.72 35 5 28.28 5 20ZM7.99999 20C7.99999 26.63 13.37 32 20 32C26.63 32 32 26.63 32 20C32 13.37 26.63 7.99999 20 7.99999C13.37 7.99999 7.99999 13.37 7.99999 20Z" fill="#B6C2CD"/>
<path fill-rule="evenodd" clip-rule="evenodd" d="M32 38C35.3137 38 38 35.3137 38 32C38 28.6863 35.3137 26 32 26C28.6863 26 26 28.6863 26 32C26 35.3137 28.6863 38 32 38ZM34.357 28.7002L35.2998 29.643L32.9428 32L35.2998 34.357L34.357 35.2999L32 32.9428L29.643 35.2999L28.7002 34.357L31.0572 32L28.7002 29.643L29.643 28.7002L32 31.0572L34.357 28.7002Z" fill="#CA2621"/>
<path fill-rule="evenodd" clip-rule="evenodd" d="M35.2999 29.643L34.3571 28.7002L32 31.0572L29.643 28.7002L28.7002 29.643L31.0572 32L28.7002 34.357L29.643 35.2999L32 32.9428L34.3571 35.2999L35.2999 34.357L32.9428 32L35.2999 29.643Z" fill="white"/>
</svg>
