<svg width="12" height="12" viewBox="0 0 12 12" fill="none" xmlns="http://www.w3.org/2000/svg">
<path fill-rule="evenodd" clip-rule="evenodd" d="M6 12C9.31371 12 12 9.31371 12 6C12 2.68629 9.31371 0 6 0C2.68629 0 0 2.68629 0 6C0 9.31371 2.68629 12 6 12ZM8.35702 2.7002L9.29983 3.643L6.94281 6.00003L9.29983 8.35705L8.35702 9.29986L6 6.94284L3.64297 9.29986L2.70016 8.35705L5.05719 6.00003L2.70016 3.643L3.64297 2.7002L6 5.05722L8.35702 2.7002Z" fill="#CA2621"/>
<path fill-rule="evenodd" clip-rule="evenodd" d="M9.29986 3.643L8.35705 2.7002L6.00003 5.05722L3.64301 2.7002L2.7002 3.643L5.05722 6.00003L2.7002 8.35705L3.64301 9.29986L6.00003 6.94284L8.35705 9.29986L9.29986 8.35705L6.94284 6.00003L9.29986 3.643Z" fill="white"/>
</svg>
