<svg width="154" height="36" viewBox="0 0 154 36" fill="none" xmlns="http://www.w3.org/2000/svg">
<path d="M55.9582 14.6387C55.9582 12.0648 56.6302 10.0831 57.9741 8.69363C59.3104 7.31176 61.1288 6.62083 63.4294 6.62083C65.692 6.62083 67.4535 7.27 68.7139 8.56835C69.9819 9.8667 70.6159 11.7041 70.6159 14.0806C70.6159 16.6394 69.9477 18.6173 68.6114 20.0143C67.2827 21.4114 65.4605 22.1099 63.1447 22.1099C60.8821 22.1099 59.1168 21.4607 57.8488 20.1624C56.5884 18.8565 55.9582 17.0152 55.9582 14.6387ZM63.3611 20.2877C64.257 20.2877 64.9518 19.8245 65.4453 18.8982C65.9464 17.9643 66.197 16.5673 66.197 14.707C66.197 12.5963 65.9388 11.0246 65.4225 9.99198C64.9062 8.95178 64.1697 8.43168 63.213 8.43168C62.3095 8.43168 61.6072 8.89484 61.1061 9.82115C60.6125 10.7475 60.3658 12.1369 60.3658 13.9895C60.3658 16.1155 60.6239 17.6986 61.1402 18.7388C61.6641 19.7714 62.4044 20.2877 63.3611 20.2877ZM71.533 26.21V24.9002C71.867 24.7484 72.2618 24.6497 72.7174 24.6041V12.657L71.5557 12.3609V10.9828C72.9224 10.626 74.5928 10.4475 76.5669 10.4475V12.2128C76.8554 11.6282 77.311 11.1613 77.9336 10.812C78.5562 10.4551 79.2281 10.2767 79.9495 10.2767C81.3313 10.2767 82.3981 10.7664 83.1498 11.7459C83.909 12.7254 84.2887 14.1034 84.2887 15.8801C84.2887 17.7707 83.8027 19.293 82.8309 20.4471C81.8666 21.6012 80.5872 22.1783 78.9928 22.1783C78.0892 22.1783 77.3072 21.9125 76.6466 21.381V24.6041C77.2161 24.6497 77.6868 24.7484 78.0589 24.9002V26.21H71.533ZM78.1614 12.8165C77.5464 12.8165 77.0414 13.0367 76.6466 13.477V19.8207C76.8972 19.8967 77.1895 19.9346 77.5236 19.9346C78.3967 19.9346 79.0611 19.6081 79.5167 18.9552C79.9798 18.2946 80.2114 17.3607 80.2114 16.1535C80.2114 14.9842 80.0368 14.1376 79.6875 13.6137C79.3458 13.0822 78.8371 12.8165 78.1614 12.8165ZM85.4677 16.0623C85.4677 14.2781 86.0219 12.8734 87.1305 11.8484C88.239 10.8158 89.6285 10.2995 91.2989 10.2995C92.8402 10.2995 94.0208 10.7133 94.8409 11.5409C95.6685 12.3685 96.0823 13.5264 96.0823 15.0145C96.0823 15.4473 96.0443 15.9219 95.9684 16.4382H89.4311C89.5981 18.5186 90.5965 19.5588 92.4264 19.5588C93.5425 19.5588 94.4802 19.1564 95.2395 18.3515L95.9 19.3538C95.4748 20.189 94.856 20.8533 94.0436 21.3469C93.2388 21.8404 92.2935 22.0871 91.2077 22.0871C89.4159 22.0871 88.0112 21.5822 86.9938 20.5724C85.9764 19.555 85.4677 18.0516 85.4677 16.0623ZM91.2077 12.099C90.1296 12.099 89.5374 13.0404 89.4311 14.9234H92.6314C92.6466 14.8323 92.6542 14.6121 92.6542 14.2629C92.6542 13.5719 92.5289 13.0404 92.2783 12.6684C92.0278 12.2888 91.6709 12.099 91.2077 12.099ZM97.0107 21.8252V20.5155C97.3448 20.3636 97.7434 20.2649 98.2065 20.2193V12.657L97.0335 12.3609V10.9828C98.6128 10.5728 100.31 10.3678 102.124 10.3678V12.1673C102.527 11.5523 103.062 11.0853 103.73 10.7664C104.406 10.44 105.161 10.2767 105.997 10.2767C107.12 10.2767 107.99 10.5842 108.605 11.1992C109.227 11.8142 109.539 12.657 109.539 13.7276V20.2193C109.994 20.2649 110.389 20.3636 110.723 20.5155V21.8252H104.425V20.5155C104.759 20.3636 105.158 20.2649 105.621 20.2193V14.5476C105.621 14.0693 105.492 13.701 105.234 13.4429C104.983 13.1847 104.622 13.0556 104.152 13.0556C103.37 13.0556 102.694 13.329 102.124 13.8756V20.2193C102.603 20.2649 103.005 20.3636 103.332 20.5155V21.8252H97.0107ZM111.424 21.8252V20.4243C111.819 20.2649 112.278 20.1624 112.802 20.1168V8.60252C112.278 8.55696 111.819 8.45446 111.424 8.29501V6.89416H123.952C124.043 7.51676 124.088 8.11659 124.088 8.69363C124.088 9.69587 124.028 10.5425 123.906 11.2334H121.924L121.309 8.57974H116.97V13.4542H119.077C119.259 12.6115 119.373 12.1445 119.419 12.0534H120.968C121.059 12.6153 121.104 13.3442 121.104 14.2401C121.104 15.379 121.059 16.2977 120.968 16.9962H119.419C119.237 16.2598 119.115 15.6865 119.054 15.2765H116.97V20.151H121.378L122.414 17.019L124.464 17.3493C124.464 18.9893 124.263 20.4813 123.861 21.8252H111.424ZM125.245 21.8252V20.4243C125.639 20.2649 126.099 20.1624 126.623 20.1168V8.60252C126.099 8.55696 125.639 8.45446 125.245 8.29501V6.89416H132.192V8.29501C131.789 8.45446 131.323 8.55696 130.791 8.60252V20.151H134.811L135.836 17.019L137.886 17.3493C137.886 18.9893 137.685 20.4813 137.283 21.8252H125.245ZM138.473 21.8252V20.4243C138.868 20.2649 139.327 20.1624 139.851 20.1168V8.60252C139.327 8.55696 138.868 8.45446 138.473 8.29501V6.89416H146.616C147.998 6.89416 149.126 7.19787 149.999 7.80529C150.864 8.43548 151.297 9.32382 151.297 10.4703C151.297 11.3131 151.085 12.0268 150.659 12.6115C150.234 13.1885 149.646 13.5947 148.894 13.8301C149.942 14.0123 150.735 14.4109 151.274 15.0259C151.821 15.6334 152.094 16.3926 152.094 17.3037C152.094 18.7388 151.574 19.8511 150.534 20.6407C149.502 21.4304 148.07 21.8252 146.241 21.8252H138.473ZM144.02 8.57974V13.4087H144.999C145.736 13.4087 146.297 13.1923 146.685 12.7595C147.072 12.3267 147.266 11.6927 147.266 10.8575C147.266 9.33901 146.495 8.57974 144.954 8.57974H144.02ZM144.02 15.1968V20.151H145.124C146.028 20.151 146.715 19.9384 147.186 19.5132C147.657 19.088 147.892 18.4578 147.892 17.6226C147.892 16.7799 147.676 16.1648 147.243 15.7776C146.81 15.3904 146.142 15.1968 145.238 15.1968H144.02Z" fill="#4C5550"/>
<path fill-rule="evenodd" clip-rule="evenodd" d="M0.271851 13.652V0.271484H45.6845V13.652H0.271851ZM5.59657 5.62945V8.29424H8.25954V5.62945H5.59657ZM10.9229 8.29424V5.62945H13.5858V8.29424H10.9229ZM28.8287 5.62945V8.29424H40.3592V5.62945H28.8287Z" fill="url(#paint0_linear_2_4197)"/>
<path fill-rule="evenodd" clip-rule="evenodd" d="M26.7787 29.8707H0.271729V16.4902H45.6843V29.8707H36.2069L31.4928 18.9232L26.7787 29.8707ZM13.586 24.5132V21.8483H10.923V24.5132H13.586ZM8.25967 21.8483V24.5132H5.59669V21.8483H8.25967Z" fill="url(#paint1_linear_2_4197)"/>
<path d="M31.4927 26.2217L32.788 29.8484H36.1556L33.3061 31.9208L34.376 35.5475L31.4927 33.4751L28.6121 35.5475L29.6794 31.9208L26.8298 29.8484H30.1975L31.4927 26.2217Z" fill="#EDB51D"/>
<defs>
<linearGradient id="paint0_linear_2_4197" x1="-9.83344" y1="8.46076" x2="3.93996" y2="33.5301" gradientUnits="userSpaceOnUse">
<stop stop-color="#17BC85"/>
<stop offset="1" stop-color="#01AA72"/>
<stop offset="1" stop-color="#00A971"/>
</linearGradient>
<linearGradient id="paint1_linear_2_4197" x1="-9.83356" y1="24.6795" x2="3.93984" y2="49.7489" gradientUnits="userSpaceOnUse">
<stop stop-color="#17BC85"/>
<stop offset="1" stop-color="#01AA72"/>
<stop offset="1" stop-color="#00A971"/>
</linearGradient>
</defs>
</svg>
